<?xml version="1.0" encoding="UTF-8"?> <svg xmlns="http://www.w3.org/2000/svg" xmlns:xlink="http://www.w3.org/1999/xlink" viewBox="0 0 440 229.39489"><defs><style>.cls-1{fill:#7929d2;}.cls-2{fill:#9454db;}.cls-3{fill:#af7fe4;}.cls-4{fill:url(#linear-gradient);}.cls-5{fill:url(#linear-gradient-2);}.cls-6{fill:url(#linear-gradient-3);}.cls-7{fill:url(#linear-gradient-4);}.cls-8{fill:#2d3136;}</style><linearGradient id="linear-gradient" x1="173.22662" y1="83.04115" x2="269.62072" y2="83.04115" gradientUnits="userSpaceOnUse"><stop offset="0" stop-color="#7929d2"></stop><stop offset="1" stop-color="#0070c5"></stop></linearGradient><linearGradient id="linear-gradient-2" x1="179.78727" y1="-1.87884" x2="178.97991" y2="93.40757" gradientUnits="userSpaceOnUse"><stop offset="0" stop-color="#00aeff"></stop><stop offset="1" stop-color="#9454db"></stop></linearGradient><linearGradient id="linear-gradient-3" x1="232.84549" y1="37.63202" x2="212.26581" y2="1.98698" gradientUnits="userSpaceOnUse"><stop offset="0" stop-color="#66a9dc"></stop><stop offset="1" stop-color="#b1e4fa"></stop></linearGradient><linearGradient id="linear-gradient-4" x1="237.42321" y1="9.70268" x2="249.11587" y2="90.57694" xlink:href="#linear-gradient-2"></linearGradient></defs><g id="Colored_Positive" data-name="Colored Positive"><polygon class="cls-1" points="137.154 121.601 105.31 135.046 132.385 148.72 137.154 121.601"></polygon><polygon class="cls-2" points="68.401 139.419 34.434 126.703 42.309 153.408 68.401 139.419"></polygon><polygon class="cls-3" points="84.508 115.518 105.31 135.046 68.401 139.419 84.508 115.518"></polygon><polygon class="cls-3" points="38.535 97.167 34.434 126.703 8.759 101.076 38.535 97.167"></polygon><polygon class="cls-4" points="137.154 121.601 220.982 44.482 258.666 94.416 137.154 121.601"></polygon><polygon class="cls-5" points="137.154 121.601 172.959 8.13 220.982 44.482 137.154 121.601"></polygon><polygon class="cls-6" points="172.959 8.13 258.666 8.13 220.982 44.482 172.959 8.13"></polygon><polygon class="cls-7" points="258.666 94.416 258.666 8.13 220.982 44.482 258.666 94.416"></polygon><path class="cls-8" d="M172.56179,206.12831v-9.06612l24.189-33.82651H173.70458v-9.828h35.88353v8.6471l-24.41756,34.24553h25.06514v9.828Z"></path><path class="cls-8" d="M225.19819,188.71984q.26614,5.33352,2.59032,7.65668,2.32317,2.32392,7.31384,2.32367a16.21678,16.21678,0,0,0,5.0854-.72377,8.14694,8.14694,0,0,0,3.82834-2.78078l7.31384,5.21873a14.7969,14.7969,0,0,1-6.22819,5.18064q-3.82835,1.71418-10.45651,1.71418-9.86706,0-14.72291-5.18064-4.85685-5.18013-4.85685-15.65619,0-21.44607,19.19883-21.44631,8.53182,0,13.00874,4.81875,4.47491,4.81926,4.47592,14.03724v4.8378Zm16.799-6.78054q0-9.10395-7.96142-9.10421a9.102,9.102,0,0,0-4.3045.89519,6.69237,6.69237,0,0,0-2.68555,2.6665,16.81823,16.81823,0,0,0-1.58086,5.54252Z"></path><path class="cls-8" d="M295.96782,185.86287a30.72681,30.72681,0,0,1-1.94274,11.35169,16.29,16.29,0,0,1-5.56156,7.50431,14.46506,14.46506,0,0,1-8.6471,2.59032,16.46611,16.46611,0,0,1-11.3136-4.15213V221.175h-9.828V166.16883H267.741v3.92357a23.592,23.592,0,0,1,5.77107-3.71406,16.89719,16.89719,0,0,1,6.952-1.35229q7.58,0,11.54216,5.333Q295.96682,175.69257,295.96782,185.86287Zm-10.13272.15238q0-5.82822-2.01892-9.08517a6.62576,6.62576,0,0,0-6.01868-3.25694,12.12546,12.12546,0,0,0-4.933,1.12374,16.5144,16.5144,0,0,0-4.36164,2.76174v17.48465a15.71263,15.71263,0,0,0,3.86644,2.49508,11.0079,11.0079,0,0,0,4.74256,1.08565,7.3295,7.3295,0,0,0,6.38057-3.44741Q285.83511,191.72944,285.8351,186.01525Z"></path><path class="cls-8" d="M328.834,206.12831V184.1106q0-6.32292-1.18088-8.38044a4.41856,4.41856,0,0,0-4.19022-2.057q-4.38168,0-10.55174,5.79012v26.66505h-9.828V149.408h9.828v21.94152a22.63076,22.63076,0,0,1,6.66626-4.72352,16.77074,16.77074,0,0,1,6.93292-1.5999q6.70335,0,9.428,3.77119,2.72315,3.77121,2.72365,10.666v26.66505Z"></path><path class="cls-8" d="M343.30229,211.49941a17.84733,17.84733,0,0,0,5.752,1.1047,6.06415,6.06415,0,0,0,3.88548-1.33326q1.67508-1.33375,3.46645-5.52347l1.02851-2.36176-14.43722-37.21679h10.20891l9.447,25.52226,9.6756-25.52226h9.98035L365.12953,208.871a31.82753,31.82753,0,0,1-4.07594,7.61858,11.66364,11.66364,0,0,1-4.62829,3.58074,17.35552,17.35552,0,0,1-6.64722,1.10469,32.71115,32.71115,0,0,1-8.5709-1.14278Z"></path><path class="cls-8" d="M410.98539,175.76825a9.086,9.086,0,0,0-4.03785-.76186,10.86745,10.86745,0,0,0-5.19968,1.31421,22.916,22.916,0,0,0-5.04731,3.82834v25.97937h-9.828V166.16883h9.828v5.71394a25.65574,25.65574,0,0,1,5.40919-4.53306,12.06278,12.06278,0,0,1,6.4758-1.79036,8.69776,8.69776,0,0,1,4.34259.79995Z"></path><path class="cls-8" d="M424.04622,167.02661h-.904v2.07682h-1.234v-5.79574h2.71145a1.8049,1.8049,0,0,1,1.94644,1.86828,1.66317,1.66317,0,0,1-1.26926,1.72025l1.30385,2.20721h-1.4166Zm.39081-2.65889h-1.29486v1.59886H424.437a.8022.8022,0,1,0,0-1.59886Z"></path><path class="cls-8" d="M424.254,172.49932a6.29376,6.29376,0,1,1,6.29434-6.294A6.30082,6.30082,0,0,1,424.254,172.49932Zm0-11.7913a5.49754,5.49754,0,1,0,5.49812,5.49735A5.50374,5.50374,0,0,0,424.254,160.708Z"></path></g></svg> 