<svg version="1.2" xmlns="http://www.w3.org/2000/svg" viewBox="0 0 1000 285" width="1000" height="285"><style>.a{fill:#e46622}.b{fill:#19882f}</style><path fill-rule="evenodd" class="a" d="m522.6 197.4c187.1-5.5 315.9 6.3 474.3 26.1l-6.6 4.5c-132.3-9.4-216.7-24-364.6-19.8-237.5 6.2-436.5 37.9-625.7 75.1l5.6-26.5q63.8-12.1 128.1-21.8 64.6-9.8 129.1-17.1 64.6-7.6 129.6-12.5 64.9-5.2 130.2-8z"/><path fill-rule="evenodd" class="b" d="m322.6 40.7l-21.9 20.8q-22.9-23.6-50.7-23.6-5.6 0-11.1 1-5.2 1.1-10.4 3.2-5.2 2-9.7 5.2-4.9 2.7-8.7 6.9-3.8 3.8-7 8.4-3.1 4.5-5.2 9.7-2.1 4.9-3.1 10.4-1 5.2-1 10.8 0 3.8 0.3 7.6 0.3 3.9 1.4 7.3 0.7 3.9 2.1 7.3 1.4 3.5 3.1 7 1.7 3.1 4.2 5.9 2 3.1 4.8 5.6 2.5 2.4 5.2 4.5 3.2 2.1 6.3 3.8 3.5 1.7 6.9 3.1 3.5 1.4 7.3 2.5 3.5 0.7 7.3 1.4 3.8 0.3 7.6 0.3 3.2 0 6.3-0.3 3.1-0.4 6.6-1.1 3.1-0.3 6.2-1.4 3.2-1 5.9-2.4 3.5-1.8 7-3.5 3.1-2.1 6.2-4.5 3.2-2.1 6.3-4.9 2.8-2.4 5.5-5.2l21.2 21.9q-3.8 3.8-7.6 7.3-4.2 3.5-8.7 6.6-4.2 3.1-8.7 5.9-4.8 2.5-9.3 4.9-4.6 1.7-9.1 3.1-4.8 1.4-9.4 2.1-4.8 1-9.3 1.4-4.9 0.3-9.7 0.3-38.2 0-62.9-24.3-24.6-24-24.6-62.2 0-5.6 0.6-11.5 0.7-5.5 2.1-11.1 1.4-5.6 3.5-10.8 2.4-5.2 5.2-10.1 2.8-4.8 6.3-9.3 3.4-4.2 7.6-8.4 3.8-3.8 8.7-6.9 4.5-3.5 9.4-5.9 5.2-2.8 10.4-5.2 5.5-2.1 11.1-3.5 5.5-1.4 11.4-2.1 5.9-0.7 11.8-0.7 4.9 0 10.1 0.3 4.9 0.7 10.1 1.8 4.8 1 9.7 2.4 4.9 1.8 9.4 3.8 4.8 2.1 9.4 4.9 4.1 2.4 8.3 5.6 4.2 3.1 8 6.6 3.8 3.4 7.3 7.3zm-303.2 143.2v-177.6h57.3q33 0 42.7 2.7 3.9 1.1 7.3 2.5 3.9 1.7 7 3.8 3.5 2.4 6.2 5.2 2.8 2.8 5.2 5.9 2.5 3.5 4.6 7.7 2 4.1 3.4 8.7 1.4 4.5 2.1 9 0.4 4.5 0.4 9 0 3.5-0.4 7.3-0.3 3.5-1 7-0.7 3.4-1.8 6.6-1.4 3.5-2.7 6.6-1.4 2.8-3.2 5.2-1.7 2.1-3.4 4.5-2.1 2.1-4.2 4.2-2.1 1.7-4.5 3.5-2.1 1.7-4.2 2.7-2.4 1.4-4.5 2.5-2.4 1-4.9 1.7-2.4 1.1-4.8 1.4-4.5 1-9.4 1.4-4.5 0.7-9.4 1-4.5 0.4-9 0.4c-3.2 0-29.6 0-32.6 0v66.7zm702-180l-45.8 180h-49.6l-28.9-111.2-27.7 111.2h-50l-45.5-180h46.8l25 120.6 30.3-120.6h44.7l28.9 120.9 26-120.9zm258.7 44.1l-68.4 186h-45.5l20.5-53.2-49.7-132.8h44.5l28.4 85.5 26.8-85.5zm-183.7 121.7q-4.2 3.4-7.6 6.6-1.1 0.7-2.5 1.4-1 1-2 1.7-1.1 0.7-2.5 1.4-1 0.7-2.4 1-3.1 1.8-6.3 2.8-3.1 1.4-6.2 2.1-3.5 0.7-7 1-3.1 0-6.6 0-4.1 0-8.3-0.7-4.2-0.7-8-2.4-3.8-1.4-7.3-3.8-3.4-2.4-6.6-5.2-2.7-3.2-5.2-6.6-2.1-3.5-3.8-7.3-1.4-4.2-2.1-8.4-0.7-4.1-0.7-8.3 0-3.1 0.4-6.3 0.3-3.1 1-6.2 0.7-3.2 2.1-6.3 1-2.8 2.8-5.5 1.4-2.5 3.5-4.6 1.7-2 4.1-4.1 2.1-1.8 4.5-3.5 2.5-1.4 5.2-2.4 3.2-1.8 6.6-2.8 3.2-1.4 6.6-2.5 3.5-0.7 7.3-1.3 3.5-0.7 7-1.4 15.9-2.1 34.4-3.5v-0.7q0.3-2.4-0.4-4.5-0.3-2.5-1.4-4.5-1.4-2.1-2.8-3.9-1.7-1.4-3.8-2.7-2.8-1.1-5.9-2.1-3.1-0.7-6.2-1.4-3.2-0.4-6.3-0.7-3.1 0-6.6 0-2.1 0-4.1 0.3-2.5 0-4.6 0.4-2 0.3-4.5 1-2.1 0.4-4.1 1.1-2.5 0.7-5.3 1.4-2.4 0.6-4.8 1.7-2.4 0.7-4.9 1.7-2.4 1.1-4.8 2.1h-3.5v-33q6.2-1.7 20.5-4.2 3.5-0.7 6.9-1 3.5-0.4 7-0.7 3.8-0.4 7.3-0.7 3.4 0 6.9 0 35.1 0 51.4 11.8 16 11.5 16 35.5v92.4h-42v-14.6zm0-20.8v-28.5q-10.8 1-17.4 2-1.7 0-3.5 0.4-1.4 0.3-3.1 0.7-1.7 0.3-3.1 1-1.8 0.4-3.5 1.1-1 0.3-2.4 0.7-1.1 0.7-2.1 1.4-1.4 0.7-2.1 1.7-1 1-2.1 1.7-0.7 1.4-1.4 2.5-0.3 1.4-1 2.7-0.4 1.4-0.4 2.8-0.3 1.4-0.3 2.5 0.3 9.7 5.2 13.2 1.7 1 3.8 1.7 1.8 0.7 3.5 1.4 2.1 0.3 4.2 0.3 1.7 0.4 3.8 0 1.4 0 2.8 0 1.7-0.3 3.1-0.7 1.4-0.3 2.8-0.6 1.3-0.4 2.7-1.1 1.4-0.7 2.8-1.4 1.4-0.7 2.8-1.7 1-0.7 2.4-1.8 1.4-1 2.5-2zm-325-19.9c0 8.7 1.3 17.4-2.1 24q-1.4 2.5-2.8 4.9-1.4 2.1-3.1 4.2-1.8 2.1-3.9 4.1-1.7 1.8-4.1 3.5-2.5 2.1-4.9 3.8-2.8 1.8-5.5 3.2-2.8 1.4-5.9 2.4-2.8 1.4-5.9 2.1-3.9 1-7.7 1.7-3.8 0.7-7.6 1.1-3.8 0.3-7.7 0.7-4.1 0-7.9 0h-72.3v-180.4c2.6 0 68.9 0 71.2 0q3.8 0.3 7.7 0.3 3.8 0.4 7.6 0.7 3.8 0.4 7.3 0.7 2.8 0.4 5.2 1.1 2.4 0.3 4.9 1.3 2.4 0.7 4.5 1.8 2.4 1 4.8 2.1 2.1 1 4.2 2.8 2.1 1.3 3.8 3.1 2.1 1.7 3.5 3.8 1.7 2.1 2.8 4.2 1.4 2.4 2 4.8 1.1 2.5 1.8 4.9 0.7 2.4 0.7 5.2 0.3 2.5 0.3 5.2 0 3.2-0.3 6.3-0.4 3.1-1.4 5.9-0.7 3.1-2.1 5.9-1 2.8-2.8 5.6-1.7 2.4-3.4 4.5-2.1 2.4-4.6 4.2-2 2-4.8 3.4-2.5 1.8-5.2 2.8v1.1q3.8 0.6 7.3 2 3.8 1.1 6.9 2.8 3.5 2.1 6.6 4.2 3.1 2.4 5.9 5.2c6.6 7.3 6.9 16.7 7 28.8zm-54.9-73.3q0-1.4-0.4-2.4 0-1.1-0.3-2.5-0.4-1-0.7-2-0.3-1.1-1-2.1-0.4-1.1-1.1-2.1-0.7-1.1-1.7-2.1-1.1-0.7-2.1-1.4-1-0.7-2.1-1-1-0.7-2.4-1.1-1.4-0.3-2.8-0.7-1.4-0.3-2.4-0.3-1.4 0-2.8-0.4c-4.2 0-10.4 0-18.4 0h-3.1v38.3h5.9c7.6 0 13.2 0 16.3-0.4q1 0 2.4-0.3 1.1 0 2.5-0.4 1-0.3 2.4-0.7 1-0.3 2.1-1 1.4-0.4 2.4-1.1 1-0.6 2.1-1.7 1-1 1.7-2.1 0.7-1 1.4-2.1 0.4-1.3 0.7-2.4 0.7-1.4 0.7-2.8 0.3-1 0.3-2.4 0.4-1.4 0.4-2.8zm11.1 73.3q0.3-1.7 0-3.4 0-1.8-0.7-3.5-0.3-1.7-1-3.1-0.7-1.8-1.8-3.2-0.7-1-2.1-2.4-1-1-2.4-1.7-1-1.1-2.4-1.8-1.8-0.7-3.1-1-1.4-0.7-2.8-1.1-1.4-0.3-2.8-0.3-1.4-0.3-2.8-0.3-1.4-0.4-3.1-0.4c-4.5 0-11.1 0-19.1 0h-8.3v45.2h2.4q17.7 0 24.3-0.4 1.7 0 3.5-0.3 1.7 0 3.5-0.7 1.7-0.3 3.4-0.7 1.8-0.7 3.5-1.4 1.4-0.7 2.8-1.4 1.4-0.7 2.4-1.7 1-1.1 2.1-2.1 1-1.4 1.7-2.8 0.7-1 1.4-2.8 0.4-1.4 0.7-2.7 0.4-1.4 0.7-2.8 0-1.8 0-3.2zm-372.9-91.7v50.4h19.4q21.6 0 28.5-2.8 1.7-0.7 3.5-1.4 1.4-1 2.8-2.1 1.3-1 2.7-2.4 1.1-1.4 2.1-2.8 1.1-1.7 2.1-3.1 0.7-1.7 1-3.5 0.7-1.7 0.7-3.8 0.4-1.7 0.4-3.5 0-2.1-0.4-4.5-0.3-2.1-1-4.2-0.7-2.1-1.7-3.8-1.1-1.7-2.5-3.5-1.4-1.7-3.1-2.8-1.7-1.3-3.5-2.4-1.7-1-3.8-1.7-2.1-0.7-4.2-1.1-3.1-0.3-6.2-0.7-3.5 0-6.6-0.3-3.1 0-6.3 0-3.4 0-6.6 0z"/></svg>